<svg xmlns="http://www.w3.org/2000/svg" viewBox="0 0 512 512">
  <defs>
    <linearGradient id="g" x1="84" y1="72" x2="430" y2="438" gradientUnits="userSpaceOnUse">
      <stop stop-color="#0f766e"/>
      <stop offset="1" stop-color="#be3455"/>
    </linearGradient>
  </defs>
  <rect width="512" height="512" rx="112" fill="#0f1720"/>
  <rect x="40" y="40" width="432" height="432" rx="92" fill="url(#g)"/>
  <path d="M163 188c0-45 36-82 80-82h26c44 0 80 37 80 82 0 30-11 59-31 81l-22 24c-12 13-21 29-26 46l-9 31c-2 8-12 8-14 0l-9-31c-5-17-14-33-26-46l-22-24c-20-22-31-51-31-81Z" fill="white" opacity=".96"/>
  <path d="M176 178c18 15 43 24 80 24s62-9 80-24" fill="none" stroke="#0f1720" stroke-opacity=".22" stroke-width="18" stroke-linecap="round"/>
  <text x="256" y="431" text-anchor="middle" font-family="Inter, Arial, sans-serif" font-size="58" font-weight="900" fill="white" letter-spacing="2">SE</text>
</svg>
